<svg xmlns="http://www.w3.org/2000/svg" width="81.4" height="81.4" viewBox="0 0 81.4 81.4"><style>.st0{fill-rule:evenodd;clip-rule:evenodd;fill:#00a6b6;} .st1{fill:#00a6b6;}</style><path class="st0" d="M52.5 32.8c-.6-.6-1.6-.6-2.1 0L37.6 45.4 31 38.9c-.6-.6-1.6-.6-2.1 0-.6.6-.6 1.5 0 2.1l7.5 7.4c0 .1.1.1.1.2.3.3.7.4 1.1.4.4 0 .8-.1 1.1-.4 0 0 .1-.1.1-.2L52.5 35c.6-.6.6-1.6 0-2.2z"/><path class="st1" d="M40.7 81.4C18.3 81.4 0 63.2 0 40.7S18.3 0 40.7 0s40.7 18.3 40.7 40.7-18.2 40.7-40.7 40.7zm0-78.9C19.6 2.5 2.5 19.6 2.5 40.7s17.1 38.2 38.2 38.2 38.2-17.1 38.2-38.2S61.8 2.5 40.7 2.5z"/></svg>
